STARTFONT 2.3
FONT -FontForge-Tangerine-Book-R-Normal--10-100-72-72-P-37-ISO10646-1
SIZE 10 72 72  4
FONTBOUNDINGBOX 18 11 -4 -3
COMMENT "Generated by fontforge, http://fontforge.sourceforge.net"
COMMENT "Copyright (c) 2010 by Toshi Omagari. All rights reserved."
STARTPROPERTIES 40
FOUNDRY "FontForge"
FAMILY_NAME "Tangerine"
WEIGHT_NAME "Book"
SLANT "R"
SETWIDTH_NAME "Normal"
ADD_STYLE_NAME ""
PIXEL_SIZE 10
POINT_SIZE 100
RESOLUTION_X 72
RESOLUTION_Y 72
SPACING "P"
AVERAGE_WIDTH 37
CHARSET_REGISTRY "ISO10646"
CHARSET_ENCODING "1"
FONTNAME_REGISTRY ""
CHARSET_COLLECTIONS "ISO10646-1"
BITS_PER_PIXEL 4
FONT_NAME "Tangerine-Regular"
FACE_NAME "Tangerine Regular"
COPYRIGHT "Copyright (c) 2010 by Toshi Omagari. All rights reserved."
FONT_VERSION "1.3"
FONT_ASCENT 8
FONT_DESCENT 2
UNDERLINE_POSITION -1
UNDERLINE_THICKNESS 1
X_HEIGHT 2
CAP_HEIGHT 5
RAW_ASCENT 750
RAW_DESCENT 250
NORM_SPACE 2
RELATIVE_WEIGHT 40
RELATIVE_SETWIDTH 50
SUPERSCRIPT_X 0
SUPERSCRIPT_Y 4
SUPERSCRIPT_SIZE 6
SUBSCRIPT_X 0
SUBSCRIPT_Y 1
SUBSCRIPT_SIZE 6
AVG_LOWERCASE_WIDTH 24
AVG_UPPERCASE_WIDTH 71
ENDPROPERTIES
CHARS 233
STARTCHAR space
ENCODING 32
SWIDTH 150 0
DWIDTH 2 0
BBX 1 1 0 0
BITMAP
00
ENDCHAR
STARTCHAR exclam
ENCODING 33
SWIDTH 189 0
DWIDTH 2 0
BBX 3 6 0 0
BITMAP
0060
0050
0310
0300
0000
5100
ENDCHAR
STARTCHAR quotedbl
ENCODING 34
SWIDTH 214 0
DWIDTH 2 0
BBX 3 2 0 2
BITMAP
1630
1100
ENDCHAR
STARTCHAR numbersign
ENCODING 35
SWIDTH 289 0
DWIDTH 3 0
BBX 3 3 0 0
BITMAP
0430
2FF0
8910
ENDCHAR
STARTCHAR dollar
ENCODING 36
SWIDTH 269 0
DWIDTH 3 0
BBX 3 5 0 -1
BITMAP
0020
0640
0900
6610
2200
ENDCHAR
STARTCHAR percent
ENCODING 37
SWIDTH 388 0
DWIDTH 4 0
BBX 4 5 0 -1
BITMAP
0003
2530
6645
1363
2000
ENDCHAR
STARTCHAR ampersand
ENCODING 38
SWIDTH 507 0
DWIDTH 5 0
BBX 5 5 0 0
BITMAP
03C000
052000
161350
61A200
646730
ENDCHAR
STARTCHAR quotesingle
ENCODING 39
SWIDTH 120 0
DWIDTH 1 0
BBX 2 2 0 2
BITMAP
14
10
ENDCHAR
STARTCHAR parenleft
ENCODING 40
SWIDTH 250 0
DWIDTH 3 0
BBX 3 8 1 -1
BITMAP
0010
0400
3200
5000
6000
5000
4000
3000
ENDCHAR
STARTCHAR parenright
ENCODING 41
SWIDTH 276 0
DWIDTH 3 0
BBX 3 8 0 -1
BITMAP
0010
0030
0050
0060
0060
0410
0500
3100
ENDCHAR
STARTCHAR asterisk
ENCODING 42
SWIDTH 188 0
DWIDTH 2 0
BBX 3 2 0 2
BITMAP
2410
1100
ENDCHAR
STARTCHAR plus
ENCODING 43
SWIDTH 301 0
DWIDTH 3 0
BBX 3 3 0 0
BITMAP
0400
6FA0
0300
ENDCHAR
STARTCHAR comma
ENCODING 44
SWIDTH 112 0
DWIDTH 1 0
BBX 1 1 0 0
BITMAP
40
ENDCHAR
STARTCHAR hyphen
ENCODING 45
SWIDTH 245 0
DWIDTH 2 0
BBX 3 1 0 1
BITMAP
6E20
ENDCHAR
STARTCHAR period
ENCODING 46
SWIDTH 112 0
DWIDTH 1 0
BBX 1 1 0 0
BITMAP
30
ENDCHAR
STARTCHAR slash
ENCODING 47
SWIDTH 210 0
DWIDTH 2 0
BBX 5 8 -1 -1
BITMAP
000010
000030
000300
001200
003000
021000
030000
100000
ENDCHAR
STARTCHAR zero
ENCODING 48
SWIDTH 349 0
DWIDTH 3 0
BBX 4 3 0 0
BITMAP
0143
4013
4530
ENDCHAR
STARTCHAR one
ENCODING 49
SWIDTH 189 0
DWIDTH 2 0
BBX 3 4 0 0
BITMAP
4800
0A10
2600
6100
ENDCHAR
STARTCHAR two
ENCODING 50
SWIDTH 277 0
DWIDTH 3 0
BBX 3 3 0 0
BITMAP
1460
0130
4620
ENDCHAR
STARTCHAR three
ENCODING 51
SWIDTH 253 0
DWIDTH 3 0
BBX 4 5 -1 -2
BITMAP
0156
0143
0012
2192
5E60
ENDCHAR
STARTCHAR four
ENCODING 52
SWIDTH 363 0
DWIDTH 4 0
BBX 5 6 0 0
BITMAP
000020
001710
013400
135200
39F600
015000
ENDCHAR
STARTCHAR five
ENCODING 53
SWIDTH 250 0
DWIDTH 3 0
BBX 4 6 -1 -2
BITMAP
0001
0043
03A0
0080
2170
7D30
ENDCHAR
STARTCHAR six
ENCODING 54
SWIDTH 296 0
DWIDTH 3 0
BBX 5 5 0 0
BITMAP
008E20
085120
232000
506000
553000
ENDCHAR
STARTCHAR seven
ENCODING 55
SWIDTH 326 0
DWIDTH 3 0
BBX 4 5 0 -2
BITMAP
0DE7
2100
0000
1200
6000
ENDCHAR
STARTCHAR eight
ENCODING 56
SWIDTH 305 0
DWIDTH 3 0
BBX 4 5 0 0
BITMAP
0243
0614
0480
5050
6530
ENDCHAR
STARTCHAR nine
ENCODING 57
SWIDTH 304 0
DWIDTH 3 0
BBX 4 6 -1 -2
BITMAP
0031
0034
051A
06D9
1163
3E60
ENDCHAR
STARTCHAR colon
ENCODING 58
SWIDTH 156 0
DWIDTH 2 0
BBX 2 3 0 0
BITMAP
24
00
50
ENDCHAR
STARTCHAR semicolon
ENCODING 59
SWIDTH 156 0
DWIDTH 2 0
BBX 2 4 0 -1
BITMAP
24
00
30
20
ENDCHAR
STARTCHAR less
ENCODING 60
SWIDTH 301 0
DWIDTH 3 0
BBX 3 3 0 0
BITMAP
0010
2520
1410
ENDCHAR
STARTCHAR equal
ENCODING 61
SWIDTH 301 0
DWIDTH 3 0
BBX 3 1 0 0
BITMAP
8F80
ENDCHAR
STARTCHAR greater
ENCODING 62
SWIDTH 301 0
DWIDTH 3 0
BBX 3 3 0 0
BITMAP
0820
0160
1000
ENDCHAR
STARTCHAR question
ENCODING 63
SWIDTH 285 0
DWIDTH 3 0
BBX 4 5 0 0
BITMAP
0258
0014
0410
0000
5100
ENDCHAR
STARTCHAR at
ENCODING 64
SWIDTH 492 0
DWIDTH 5 0
BBX 5 6 0 -2
BITMAP
05DC10
286530
546450
569D10
164300
001000
ENDCHAR
STARTCHAR A
ENCODING 65
SWIDTH 996 0
DWIDTH 10 0
BBX 10 6 0 0
BITMAP
0000023446
0000100016
0000092160
000005EFA0
2000031050
4644200083
ENDCHAR
STARTCHAR B
ENCODING 66
SWIDTH 638 0
DWIDTH 6 0
BBX 7 7 0 0
BITMAP
00000100
00121120
00030170
00043810
00210520
31100330
16532400
ENDCHAR
STARTCHAR C
ENCODING 67
SWIDTH 557 0
DWIDTH 6 0
BBX 7 6 0 0
BITMAP
00233520
04000000
15000000
44000000
26000200
05435100
ENDCHAR
STARTCHAR D
ENCODING 68
SWIDTH 799 0
DWIDTH 8 0
BBX 8 6 0 0
BITMAP
00345520
01003031
00004005
00022006
00040005
45665431
ENDCHAR
STARTCHAR E
ENCODING 69
SWIDTH 494 0
DWIDTH 5 0
BBX 6 6 0 0
BITMAP
002244
007200
03BA00
291000
520010
152230
ENDCHAR
STARTCHAR F
ENCODING 70
SWIDTH 626 0
DWIDTH 6 0
BBX 9 7 0 0
BITMAP
0000019910
0002354100
0010031000
0008550000
0003BF8000
1000230000
4432200000
ENDCHAR
STARTCHAR G
ENCODING 71
SWIDTH 571 0
DWIDTH 6 0
BBX 8 8 -1 -2
BITMAP
000019E9
0001A416
00071001
00080000
00070150
12011520
51001400
16323000
ENDCHAR
STARTCHAR H
ENCODING 72
SWIDTH 865 0
DWIDTH 9 0
BBX 12 7 0 0
BITMAP
000000000032
001227100212
000054004000
03BEE5341000
2820868D2000
500420060000
386300092000
ENDCHAR
STARTCHAR I
ENCODING 73
SWIDTH 554 0
DWIDTH 6 0
BBX 8 6 0 0
BITMAP
00000161
00011520
00020700
11001500
62049100
2DE91000
ENDCHAR
STARTCHAR J
ENCODING 74
SWIDTH 634 0
DWIDTH 6 0
BBX 9 8 0 -2
BITMAP
0000000710
0000006100
0000207000
0010125000
1100071000
4000550000
8127800000
7EC5000000
ENDCHAR
STARTCHAR K
ENCODING 75
SWIDTH 936 0
DWIDTH 9 0
BBX 10 6 0 0
BITMAP
0003455146
0020051200
0020073000
0100146000
4000406000
4532101740
ENDCHAR
STARTCHAR L
ENCODING 76
SWIDTH 657 0
DWIDTH 7 0
BBX 8 6 0 0
BITMAP
00001AE1
00009323
00046000
152A0000
9FF71220
5328EA00
ENDCHAR
STARTCHAR M
ENCODING 77
SWIDTH 1219 0
DWIDTH 12 0
BBX 13 6 0 0
BITMAP
00002355620050
00001000702700
00000001722400
21000025216000
60000207106000
28543005006400
ENDCHAR
STARTCHAR N
ENCODING 78
SWIDTH 990 0
DWIDTH 10 0
BBX 13 6 0 0
BITMAP
00035640000550
00000031003000
00000112011000
21000100320000
50001100410000
28641000230000
ENDCHAR
STARTCHAR O
ENCODING 79
SWIDTH 606 0
DWIDTH 6 0
BBX 7 6 0 0
BITMAP
005CEA00
05611750
15000060
43000240
2A214700
07EE7000
ENDCHAR
STARTCHAR P
ENCODING 80
SWIDTH 783 0
DWIDTH 8 0
BBX 9 7 0 0
BITMAP
0000000100
0000232020
0002030060
0001030070
0100165610
3000300000
3532000000
ENDCHAR
STARTCHAR Q
ENCODING 81
SWIDTH 563 0
DWIDTH 6 0
BBX 8 8 0 -2
BITMAP
00124500
02000710
04000610
06000300
06302000
01351000
15BB5100
0003AFD3
ENDCHAR
STARTCHAR R
ENCODING 82
SWIDTH 854 0
DWIDTH 9 0
BBX 9 6 0 0
BITMAP
0001240300
0001040410
0000254600
0100442000
3001315000
4532005510
ENDCHAR
STARTCHAR S
ENCODING 83
SWIDTH 480 0
DWIDTH 5 0
BBX 6 6 0 0
BITMAP
000112
003500
000A10
000260
400040
353210
ENDCHAR
STARTCHAR T
ENCODING 84
SWIDTH 577 0
DWIDTH 6 0
BBX 8 6 0 0
BITMAP
0008EEC6
00420120
01100200
00001300
20003000
45321000
ENDCHAR
STARTCHAR U
ENCODING 85
SWIDTH 752 0
DWIDTH 8 0
BBX 9 6 0 0
BITMAP
0245500420
1101000700
2020008300
0040049000
0081576000
009E708200
ENDCHAR
STARTCHAR V
ENCODING 86
SWIDTH 661 0
DWIDTH 7 0
BBX 8 7 0 -1
BITMAP
024300C4
11012126
10004011
00005060
00006820
00034300
00001000
ENDCHAR
STARTCHAR W
ENCODING 87
SWIDTH 822 0
DWIDTH 8 0
BBX 10 6 0 0
BITMAP
0357002053
1004122013
0003040020
0003150010
0003041100
0003040000
ENDCHAR
STARTCHAR X
ENCODING 88
SWIDTH 813 0
DWIDTH 8 0
BBX 9 6 0 0
BITMAP
0004702550
0003700010
0000600000
0000150000
10000A3200
563003D800
ENDCHAR
STARTCHAR Y
ENCODING 89
SWIDTH 662 0
DWIDTH 7 0
BBX 9 7 0 -1
BITMAP
0003700150
0000500710
0203105600
4005169000
6007E71000
8202520000
1DEA200000
ENDCHAR
STARTCHAR Z
ENCODING 90
SWIDTH 625 0
DWIDTH 6 0
BBX 7 8 0 0
BITMAP
00000010
00001670
0008E600
00232100
00111000
00000010
01001400
3EFFC100
ENDCHAR
STARTCHAR bracketleft
ENCODING 91
SWIDTH 318 0
DWIDTH 3 0
BBX 4 7 0 -1
BITMAP
0072
0060
0140
0510
0600
0700
1710
ENDCHAR
STARTCHAR backslash
ENCODING 92
SWIDTH 212 0
DWIDTH 2 0
BBX 2 8 0 -1
BITMAP
10
30
30
30
03
03
03
01
ENDCHAR
STARTCHAR bracketright
ENCODING 93
SWIDTH 339 0
DWIDTH 3 0
BBX 4 7 0 -1
BITMAP
0027
0034
0050
0060
0060
0240
2710
ENDCHAR
STARTCHAR asciicircum
ENCODING 94
SWIDTH 272 0
DWIDTH 3 0
BBX 3 2 0 2
BITMAP
0620
2250
ENDCHAR
STARTCHAR underscore
ENCODING 95
SWIDTH 356 0
DWIDTH 4 0
BBX 5 2 -1 -1
BITMAP
000100
1B9710
ENDCHAR
STARTCHAR grave
ENCODING 96
SWIDTH 155 0
DWIDTH 2 0
BBX 2 2 0 3
BITMAP
10
51
ENDCHAR
STARTCHAR a
ENCODING 97
SWIDTH 294 0
DWIDTH 3 0
BBX 3 3 0 0
BITMAP
1C90
7220
5140
ENDCHAR
STARTCHAR b
ENCODING 98
SWIDTH 247 0
DWIDTH 2 0
BBX 6 8 0 0
BITMAP
000242
001000
011000
020000
030000
3B5000
613000
620000
ENDCHAR
STARTCHAR c
ENCODING 99
SWIDTH 203 0
DWIDTH 2 0
BBX 2 3 0 0
BITMAP
28
50
63
ENDCHAR
STARTCHAR d
ENCODING 100
SWIDTH 285 0
DWIDTH 3 0
BBX 7 8 0 0
BITMAP
00002420
00013000
00040000
00130000
00500000
29700000
61400000
65500000
ENDCHAR
STARTCHAR e
ENCODING 101
SWIDTH 206 0
DWIDTH 2 0
BBX 2 3 0 0
BITMAP
2B
51
63
ENDCHAR
STARTCHAR f
ENCODING 102
SWIDTH 156 0
DWIDTH 2 0
BBX 9 10 -3 -2
BITMAP
0000003620
0000030000
0000130000
0000400000
0000500000
0009E50000
0003200000
0005000000
0022000000
4210000000
ENDCHAR
STARTCHAR g
ENCODING 103
SWIDTH 210 0
DWIDTH 2 0
BBX 5 5 -2 -2
BITMAP
002A10
004300
008500
151700
0BE700
ENDCHAR
STARTCHAR h
ENCODING 104
SWIDTH 292 0
DWIDTH 3 0
BBX 6 8 0 0
BITMAP
000144
001100
002000
020000
020000
179000
544000
525000
ENDCHAR
STARTCHAR i
ENCODING 105
SWIDTH 149 0
DWIDTH 1 0
BBX 2 5 0 0
BITMAP
02
00
23
50
61
ENDCHAR
STARTCHAR j
ENCODING 106
SWIDTH 136 0
DWIDTH 1 0
BBX 5 7 -3 -2
BITMAP
000020
000000
000220
000300
000200
001000
311000
ENDCHAR
STARTCHAR k
ENCODING 107
SWIDTH 259 0
DWIDTH 3 0
BBX 6 8 0 0
BITMAP
000144
001000
001000
020000
020000
296000
620000
562000
ENDCHAR
STARTCHAR l
ENCODING 108
SWIDTH 134 0
DWIDTH 1 0
BBX 5 9 0 -1
BITMAP
000560
004100
014000
050000
060000
430000
700000
600000
110000
ENDCHAR
STARTCHAR m
ENCODING 109
SWIDTH 413 0
DWIDTH 4 0
BBX 4 4 0 -1
BITMAP
399A
5375
5426
0002
ENDCHAR
STARTCHAR n
ENCODING 110
SWIDTH 291 0
DWIDTH 3 0
BBX 3 3 0 0
BITMAP
5880
4440
5250
ENDCHAR
STARTCHAR o
ENCODING 111
SWIDTH 225 0
DWIDTH 2 0
BBX 3 3 0 0
BITMAP
2D10
6410
4100
ENDCHAR
STARTCHAR p
ENCODING 112
SWIDTH 261 0
DWIDTH 3 0
BBX 4 5 -1 -2
BITMAP
0205
0135
0AB0
1400
4200
ENDCHAR
STARTCHAR q
ENCODING 113
SWIDTH 269 0
DWIDTH 3 0
BBX 3 5 0 -2
BITMAP
1870
6110
6400
0400
1500
ENDCHAR
STARTCHAR r
ENCODING 114
SWIDTH 195 0
DWIDTH 2 0
BBX 3 3 0 0
BITMAP
4B40
4500
5000
ENDCHAR
STARTCHAR s
ENCODING 115
SWIDTH 188 0
DWIDTH 2 0
BBX 2 3 0 0
BITMAP
34
15
44
ENDCHAR
STARTCHAR t
ENCODING 116
SWIDTH 171 0
DWIDTH 2 0
BBX 3 5 0 0
BITMAP
0100
0500
4D10
6100
6200
ENDCHAR
STARTCHAR u
ENCODING 117
SWIDTH 299 0
DWIDTH 3 0
BBX 3 3 0 0
BITMAP
3260
5550
9660
ENDCHAR
STARTCHAR v
ENCODING 118
SWIDTH 271 0
DWIDTH 3 0
BBX 3 3 0 0
BITMAP
4350
3750
6700
ENDCHAR
STARTCHAR w
ENCODING 119
SWIDTH 369 0
DWIDTH 4 0
BBX 4 3 0 0
BITMAP
6334
3A14
46A1
ENDCHAR
STARTCHAR x
ENCODING 120
SWIDTH 263 0
DWIDTH 3 0
BBX 3 3 0 0
BITMAP
28A0
0910
6510
ENDCHAR
STARTCHAR y
ENCODING 121
SWIDTH 280 0
DWIDTH 3 0
BBX 5 5 -2 -2
BITMAP
003250
004450
008700
100100
531000
ENDCHAR
STARTCHAR z
ENCODING 122
SWIDTH 238 0
DWIDTH 2 0
BBX 3 3 0 0
BITMAP
2720
1200
7510
ENDCHAR
STARTCHAR braceleft
ENCODING 123
SWIDTH 291 0
DWIDTH 3 0
BBX 4 8 0 -1
BITMAP
0002
0050
0050
0230
0600
0500
1500
1500
ENDCHAR
STARTCHAR bar
ENCODING 124
SWIDTH 162 0
DWIDTH 2 0
BBX 1 8 0 -2
BITMAP
30
30
30
30
30
30
30
30
ENDCHAR
STARTCHAR braceright
ENCODING 125
SWIDTH 285 0
DWIDTH 3 0
BBX 3 8 0 -1
BITMAP
0010
0060
0060
0050
0060
0500
0500
2400
ENDCHAR
STARTCHAR asciitilde
ENCODING 126
SWIDTH 383 0
DWIDTH 4 0
BBX 4 2 0 1
BITMAP
1D32
13D2
ENDCHAR
STARTCHAR space.dup1
ENCODING 160
SWIDTH 150 0
DWIDTH 2 0
BBX 1 1 0 0
BITMAP
00
ENDCHAR
STARTCHAR exclamdown
ENCODING 161
SWIDTH 189 0
DWIDTH 2 0
BBX 3 6 -1 -3
BITMAP
0050
0000
0210
0400
2400
7000
ENDCHAR
STARTCHAR cent
ENCODING 162
SWIDTH 194 0
DWIDTH 2 0
BBX 2 6 0 -2
BITMAP
11
29
85
A3
20
10
ENDCHAR
STARTCHAR sterling
ENCODING 163
SWIDTH 344 0
DWIDTH 3 0
BBX 4 3 0 0
BITMAP
0142
0610
5740
ENDCHAR
STARTCHAR currency
ENCODING 164
SWIDTH 344 0
DWIDTH 3 0
BBX 4 3 0 0
BITMAP
0892
3030
6A60
ENDCHAR
STARTCHAR yen
ENCODING 165
SWIDTH 309 0
DWIDTH 3 0
BBX 3 3 0 0
BITMAP
2510
6600
9F10
ENDCHAR
STARTCHAR brokenbar
ENCODING 166
SWIDTH 162 0
DWIDTH 2 0
BBX 1 8 0 -2
BITMAP
30
30
30
10
10
30
30
30
ENDCHAR
STARTCHAR section
ENCODING 167
SWIDTH 395 0
DWIDTH 4 0
BBX 6 9 -1 -3
BITMAP
000010
001536
004401
006500
006600
002820
100810
611600
154000
ENDCHAR
STARTCHAR dieresis
ENCODING 168
SWIDTH 174 0
DWIDTH 2 0
BBX 2 1 0 3
BITMAP
33
ENDCHAR
STARTCHAR copyright
ENCODING 169
SWIDTH 331 0
DWIDTH 3 0
BBX 3 3 0 1
BITMAP
0420
2440
1210
ENDCHAR
STARTCHAR ordfeminine
ENCODING 170
SWIDTH 226 0
DWIDTH 2 0
BBX 2 1 0 2
BITMAP
23
ENDCHAR
STARTCHAR guillemotleft
ENCODING 171
SWIDTH 289 0
DWIDTH 3 0
BBX 3 3 0 0
BITMAP
0450
5910
3A60
ENDCHAR
STARTCHAR logicalnot
ENCODING 172
SWIDTH 265 0
DWIDTH 3 0
BBX 3 2 0 1
BITMAP
CD50
0320
ENDCHAR
STARTCHAR registered
ENCODING 174
SWIDTH 331 0
DWIDTH 3 0
BBX 3 3 0 1
BITMAP
1790
3440
2740
ENDCHAR
STARTCHAR degree
ENCODING 176
SWIDTH 104 0
DWIDTH 1 0
BBX 2 2 0 2
BITMAP
15
28
ENDCHAR
STARTCHAR plusminus
ENCODING 177
SWIDTH 301 0
DWIDTH 3 0
BBX 3 3 0 0
BITMAP
0400
6FA0
3610
ENDCHAR
STARTCHAR twosuperior
ENCODING 178
SWIDTH 215 0
DWIDTH 2 0
BBX 2 2 0 1
BITMAP
05
25
ENDCHAR
STARTCHAR threesuperior
ENCODING 179
SWIDTH 190 0
DWIDTH 2 0
BBX 2 2 0 1
BITMAP
15
23
ENDCHAR
STARTCHAR acute
ENCODING 180
SWIDTH 157 0
DWIDTH 2 0
BBX 2 1 0 3
BITMAP
42
ENDCHAR
STARTCHAR mu
ENCODING 181
SWIDTH 324 0
DWIDTH 3 0
BBX 4 5 -1 -2
BITMAP
0046
0458
0897
0500
1200
ENDCHAR
STARTCHAR paragraph
ENCODING 182
SWIDTH 392 0
DWIDTH 4 0
BBX 6 5 -1 -2
BITMAP
003861
00E850
00A710
106300
643000
ENDCHAR
STARTCHAR periodcentered
ENCODING 183
SWIDTH 112 0
DWIDTH 1 0
BBX 1 1 0 1
BITMAP
50
ENDCHAR
STARTCHAR cedilla
ENCODING 184
SWIDTH 115 0
DWIDTH 1 0
BBX 1 1 0 -1
BITMAP
20
ENDCHAR
STARTCHAR onesuperior
ENCODING 185
SWIDTH 174 0
DWIDTH 2 0
BBX 2 3 0 1
BITMAP
42
24
40
ENDCHAR
STARTCHAR ordmasculine
ENCODING 186
SWIDTH 178 0
DWIDTH 2 0
BBX 2 1 0 2
BITMAP
22
ENDCHAR
STARTCHAR guillemotright
ENCODING 187
SWIDTH 276 0
DWIDTH 3 0
BBX 4 3 -1 0
BITMAP
0671
0164
1430
ENDCHAR
STARTCHAR onequarter
ENCODING 188
SWIDTH 435 0
DWIDTH 4 0
BBX 4 5 0 -1
BITMAP
0002
0522
1511
1359
1000
ENDCHAR
STARTCHAR onehalf
ENCODING 189
SWIDTH 434 0
DWIDTH 4 0
BBX 5 5 0 -1
BITMAP
000200
052200
143510
133500
100000
ENDCHAR
STARTCHAR threequarters
ENCODING 190
SWIDTH 476 0
DWIDTH 5 0
BBX 5 5 0 -1
BITMAP
000110
050400
154330
042600
010000
ENDCHAR
STARTCHAR questiondown
ENCODING 191
SWIDTH 285 0
DWIDTH 3 0
BBX 4 6 -1 -3
BITMAP
0005
0000
0042
0320
4100
5630
ENDCHAR
STARTCHAR Agrave
ENCODING 192
SWIDTH 996 0
DWIDTH 10 0
BBX 10 8 0 0
BITMAP
0000000014
0000000000
0000023446
0000100016
0000092160
000005EFA0
2000031050
4644200083
ENDCHAR
STARTCHAR Aacute
ENCODING 193
SWIDTH 996 0
DWIDTH 10 0
BBX 11 8 0 0
BITMAP
000000000610
000000000000
000002344600
000010001600
000009216000
000005EFA000
200003105000
464420008300
ENDCHAR
STARTCHAR Acircumflex
ENCODING 194
SWIDTH 996 0
DWIDTH 10 0
BBX 11 8 0 0
BITMAP
000000000120
000000000000
000002344600
000010001600
000009216000
000005EFA000
200003105000
464420008300
ENDCHAR
STARTCHAR Atilde
ENCODING 195
SWIDTH 996 0
DWIDTH 10 0
BBX 11 8 0 0
BITMAP
000000001820
000000000130
000002344600
000010001600
000009216000
000005EFA000
200003105000
464420008300
ENDCHAR
STARTCHAR Adieresis
ENCODING 196
SWIDTH 996 0
DWIDTH 10 0
BBX 11 8 0 0
BITMAP
000000000220
000000000000
000002344600
000010001600
000009216000
000005EFA000
200003105000
464420008300
ENDCHAR
STARTCHAR Aring
ENCODING 197
SWIDTH 996 0
DWIDTH 10 0
BBX 11 8 0 0
BITMAP
000000000110
000000000200
000002344600
000010001600
000009216000
000005EFA000
200003105000
464420008300
ENDCHAR
STARTCHAR AE
ENCODING 198
SWIDTH 1271 0
DWIDTH 13 0
BBX 14 6 0 0
BITMAP
00000234453252
00001000088100
00000821422200
000005FFF00000
20000310600020
46433000463420
ENDCHAR
STARTCHAR Ccedilla
ENCODING 199
SWIDTH 557 0
DWIDTH 6 0
BBX 7 7 0 -1
BITMAP
00123520
02000000
24000000
45000200
2C315100
05C61000
00010000
ENDCHAR
STARTCHAR Egrave
ENCODING 200
SWIDTH 463 0
DWIDTH 5 0
BBX 6 8 0 0
BITMAP
000320
000000
003261
008000
06D500
561000
700010
442310
ENDCHAR
STARTCHAR Eacute
ENCODING 201
SWIDTH 463 0
DWIDTH 5 0
BBX 6 8 0 0
BITMAP
000230
000000
003261
008000
06D500
561000
700010
442310
ENDCHAR
STARTCHAR Ecircumflex
ENCODING 202
SWIDTH 463 0
DWIDTH 5 0
BBX 6 8 0 0
BITMAP
000120
000000
003261
008000
06D500
561000
700010
442310
ENDCHAR
STARTCHAR Edieresis
ENCODING 203
SWIDTH 463 0
DWIDTH 5 0
BBX 6 8 0 0
BITMAP
000220
000000
003261
008000
06D500
561000
700010
442310
ENDCHAR
STARTCHAR Igrave
ENCODING 204
SWIDTH 514 0
DWIDTH 5 0
BBX 7 8 0 0
BITMAP
00001700
00000000
00000250
00010700
00021600
20014100
81175000
6EC50000
ENDCHAR
STARTCHAR Iacute
ENCODING 205
SWIDTH 514 0
DWIDTH 5 0
BBX 7 8 0 0
BITMAP
00000320
00000000
00000250
00010700
00021600
20014100
81175000
6EC50000
ENDCHAR
STARTCHAR Icircumflex
ENCODING 206
SWIDTH 514 0
DWIDTH 5 0
BBX 7 8 0 0
BITMAP
00000120
00000000
00000250
00010700
00021600
20014100
81175000
6EC50000
ENDCHAR
STARTCHAR Idieresis
ENCODING 207
SWIDTH 514 0
DWIDTH 5 0
BBX 7 8 0 0
BITMAP
00000220
00000000
00000250
00010700
00021600
20014100
81175000
6EC50000
ENDCHAR
STARTCHAR Eth
ENCODING 208
SWIDTH 800 0
DWIDTH 8 0
BBX 8 8 0 -1
BITMAP
00000010
00335520
01004032
00006006
003FFA07
00052003
32231144
00048970
ENDCHAR
STARTCHAR Ntilde
ENCODING 209
SWIDTH 796 0
DWIDTH 8 0
BBX 13 8 -2 0
BITMAP
00000000841000
00000000980000
00035650000450
00000031003000
00000112111000
11000100420000
50001100410000
28652000140000
ENDCHAR
STARTCHAR Ograve
ENCODING 210
SWIDTH 608 0
DWIDTH 6 0
BBX 7 8 0 0
BITMAP
00025000
00000000
004CEA00
05621760
15000060
43000240
2A214800
07EE7000
ENDCHAR
STARTCHAR Oacute
ENCODING 211
SWIDTH 608 0
DWIDTH 6 0
BBX 7 8 0 0
BITMAP
00004000
00000000
004CEA00
05621760
15000060
43000240
2A214800
07EE7000
ENDCHAR
STARTCHAR Ocircumflex
ENCODING 212
SWIDTH 608 0
DWIDTH 6 0
BBX 7 8 0 0
BITMAP
00015100
00000000
004CEA00
05621760
15000060
43000240
2A214800
07EE7000
ENDCHAR
STARTCHAR Otilde
ENCODING 213
SWIDTH 608 0
DWIDTH 6 0
BBX 7 8 0 0
BITMAP
0004A200
00023000
004CEA00
05621760
15000060
43000240
2A214800
07EE7000
ENDCHAR
STARTCHAR Odieresis
ENCODING 214
SWIDTH 608 0
DWIDTH 6 0
BBX 7 8 0 0
BITMAP
00003100
00000000
004CEA00
05621760
15000060
43000240
2A214800
07EE7000
ENDCHAR
STARTCHAR multiply
ENCODING 215
SWIDTH 301 0
DWIDTH 3 0
BBX 3 3 0 0
BITMAP
0550
0800
2610
ENDCHAR
STARTCHAR Oslash
ENCODING 216
SWIDTH 605 0
DWIDTH 6 0
BBX 7 7 0 0
BITMAP
00000100
005C9010
0691C050
190C4170
44980730
22916800
00CE7000
ENDCHAR
STARTCHAR Ugrave
ENCODING 217
SWIDTH 717 0
DWIDTH 7 0
BBX 8 8 0 0
BITMAP
00000200
00000110
03462007
20010044
202000A0
00400660
02618540
01EC3371
ENDCHAR
STARTCHAR Uacute
ENCODING 218
SWIDTH 717 0
DWIDTH 7 0
BBX 8 8 0 0
BITMAP
00000030
00000110
03462007
20010044
202000A0
00400660
02618540
01EC3371
ENDCHAR
STARTCHAR Ucircumflex
ENCODING 219
SWIDTH 718 0
DWIDTH 7 0
BBX 8 8 0 0
BITMAP
00000360
00000000
03462007
20010044
202000A0
00400660
02618540
01EC3371
ENDCHAR
STARTCHAR Udieresis
ENCODING 220
SWIDTH 718 0
DWIDTH 7 0
BBX 8 8 0 0
BITMAP
00000220
00000000
03462007
20010044
202000A0
00400660
02618540
01EC3371
ENDCHAR
STARTCHAR Yacute
ENCODING 221
SWIDTH 662 0
DWIDTH 7 0
BBX 9 9 0 -1
BITMAP
0000004200
0000006000
0003700150
0000500710
0203105600
4005169000
6007E71000
8202520000
1DEA200000
ENDCHAR
STARTCHAR Thorn
ENCODING 222
SWIDTH 745 0
DWIDTH 7 0
BBX 8 7 0 0
BITMAP
00000011
00000140
000028E5
00010A2A
11002902
400056A2
36430200
ENDCHAR
STARTCHAR germandbls
ENCODING 223
SWIDTH 304 0
DWIDTH 3 0
BBX 10 10 -4 -2
BITMAP
0000000760
0000006334
00000122C1
0000005D30
000003B100
0000122000
0000202000
0000188000
0000000000
1310000000
ENDCHAR
STARTCHAR agrave
ENCODING 224
SWIDTH 294 0
DWIDTH 3 0
BBX 3 4 0 0
BITMAP
0240
1C90
7220
5140
ENDCHAR
STARTCHAR aacute
ENCODING 225
SWIDTH 294 0
DWIDTH 3 0
BBX 3 4 0 0
BITMAP
0050
1C90
7220
5140
ENDCHAR
STARTCHAR acircumflex
ENCODING 226
SWIDTH 294 0
DWIDTH 3 0
BBX 3 5 0 0
BITMAP
0020
0120
1C90
7220
5140
ENDCHAR
STARTCHAR atilde
ENCODING 227
SWIDTH 294 0
DWIDTH 3 0
BBX 3 5 0 0
BITMAP
0600
0650
1DF0
7220
5140
ENDCHAR
STARTCHAR adieresis
ENCODING 228
SWIDTH 284 0
DWIDTH 3 0
BBX 3 4 0 0
BITMAP
0330
1C90
7220
5140
ENDCHAR
STARTCHAR aring
ENCODING 229
SWIDTH 294 0
DWIDTH 3 0
BBX 3 4 0 0
BITMAP
0230
1C90
7220
5140
ENDCHAR
STARTCHAR ae
ENCODING 230
SWIDTH 363 0
DWIDTH 4 0
BBX 4 3 0 0
BITMAP
29B7
5130
6371
ENDCHAR
STARTCHAR ccedilla
ENCODING 231
SWIDTH 203 0
DWIDTH 2 0
BBX 2 5 0 -2
BITMAP
28
40
63
30
10
ENDCHAR
STARTCHAR egrave
ENCODING 232
SWIDTH 206 0
DWIDTH 2 0
BBX 3 5 0 0
BITMAP
0100
0510
2B00
5100
6300
ENDCHAR
STARTCHAR eacute
ENCODING 233
SWIDTH 206 0
DWIDTH 2 0
BBX 3 4 0 0
BITMAP
0330
2B00
5100
6300
ENDCHAR
STARTCHAR ecircumflex
ENCODING 234
SWIDTH 206 0
DWIDTH 2 0
BBX 3 5 0 0
BITMAP
0200
0210
2B00
5100
6300
ENDCHAR
STARTCHAR edieresis
ENCODING 235
SWIDTH 206 0
DWIDTH 2 0
BBX 3 4 0 0
BITMAP
0330
2B00
5100
6300
ENDCHAR
STARTCHAR igrave
ENCODING 236
SWIDTH 149 0
DWIDTH 1 0
BBX 2 4 0 0
BITMAP
15
23
50
61
ENDCHAR
STARTCHAR iacute
ENCODING 237
SWIDTH 149 0
DWIDTH 1 0
BBX 3 4 0 0
BITMAP
0510
2300
5000
6100
ENDCHAR
STARTCHAR icircumflex
ENCODING 238
SWIDTH 149 0
DWIDTH 1 0
BBX 2 5 0 0
BITMAP
02
12
23
50
61
ENDCHAR
STARTCHAR idieresis
ENCODING 239
SWIDTH 149 0
DWIDTH 1 0
BBX 3 4 0 0
BITMAP
0410
2300
5000
6100
ENDCHAR
STARTCHAR eth
ENCODING 240
SWIDTH 234 0
DWIDTH 2 0
BBX 3 7 0 0
BITMAP
4000
3400
2500
0310
2830
5110
6300
ENDCHAR
STARTCHAR ntilde
ENCODING 241
SWIDTH 291 0
DWIDTH 3 0
BBX 3 5 0 0
BITMAP
0600
0650
58F0
4440
5250
ENDCHAR
STARTCHAR ograve
ENCODING 242
SWIDTH 225 0
DWIDTH 2 0
BBX 3 5 0 0
BITMAP
0100
0420
2D10
6410
4100
ENDCHAR
STARTCHAR oacute
ENCODING 243
SWIDTH 225 0
DWIDTH 2 0
BBX 3 4 0 0
BITMAP
0230
2D10
6410
4100
ENDCHAR
STARTCHAR ocircumflex
ENCODING 244
SWIDTH 225 0
DWIDTH 2 0
BBX 3 5 0 0
BITMAP
0110
0120
2D10
6410
4100
ENDCHAR
STARTCHAR otilde
ENCODING 245
SWIDTH 225 0
DWIDTH 2 0
BBX 3 5 0 0
BITMAP
0600
1830
2F70
6410
4100
ENDCHAR
STARTCHAR odieresis
ENCODING 246
SWIDTH 225 0
DWIDTH 2 0
BBX 3 4 0 0
BITMAP
0330
2D10
6410
4100
ENDCHAR
STARTCHAR divide
ENCODING 247
SWIDTH 301 0
DWIDTH 3 0
BBX 3 4 0 0
BITMAP
0100
0000
1320
0100
ENDCHAR
STARTCHAR oslash
ENCODING 248
SWIDTH 225 0
DWIDTH 2 0
BBX 3 4 0 0
BITMAP
0010
2C20
5510
7200
ENDCHAR
STARTCHAR ugrave
ENCODING 249
SWIDTH 299 0
DWIDTH 3 0
BBX 3 4 0 0
BITMAP
0150
3260
5550
9660
ENDCHAR
STARTCHAR uacute
ENCODING 250
SWIDTH 299 0
DWIDTH 3 0
BBX 3 4 0 0
BITMAP
0050
3260
5550
9660
ENDCHAR
STARTCHAR ucircumflex
ENCODING 251
SWIDTH 299 0
DWIDTH 3 0
BBX 3 5 0 0
BITMAP
0020
0120
3260
5550
9660
ENDCHAR
STARTCHAR udieresis
ENCODING 252
SWIDTH 299 0
DWIDTH 3 0
BBX 3 4 0 0
BITMAP
0330
3260
5550
9660
ENDCHAR
STARTCHAR yacute
ENCODING 253
SWIDTH 280 0
DWIDTH 3 0
BBX 5 6 -2 -2
BITMAP
000050
003250
004450
008700
100100
531000
ENDCHAR
STARTCHAR thorn
ENCODING 254
SWIDTH 261 0
DWIDTH 3 0
BBX 4 8 -1 -2
BITMAP
0011
0041
0040
0105
0335
0CB0
1400
4200
ENDCHAR
STARTCHAR ydieresis
ENCODING 255
SWIDTH 280 0
DWIDTH 3 0
BBX 5 6 -2 -2
BITMAP
000330
003250
004450
008700
100100
531000
ENDCHAR
STARTCHAR dotlessi
ENCODING 305
SWIDTH 149 0
DWIDTH 1 0
BBX 2 3 0 0
BITMAP
23
50
61
ENDCHAR
STARTCHAR Lslash
ENCODING 321
SWIDTH 657 0
DWIDTH 7 0
BBX 8 6 0 0
BITMAP
00001AE1
00007323
00159000
152A1000
65C71220
8D58EA00
ENDCHAR
STARTCHAR lslash
ENCODING 322
SWIDTH 134 0
DWIDTH 1 0
BBX 5 9 0 -1
BITMAP
000560
003100
013000
161000
050000
330000
700000
600000
110000
ENDCHAR
STARTCHAR OE
ENCODING 338
SWIDTH 827 0
DWIDTH 8 0
BBX 9 6 0 0
BITMAP
005DEA2350
0561185000
150017E000
4300A30000
3A21600000
08ED732400
ENDCHAR
STARTCHAR oe
ENCODING 339
SWIDTH 345 0
DWIDTH 3 0
BBX 4 3 0 0
BITMAP
2C95
5310
6561
ENDCHAR
STARTCHAR Scaron
ENCODING 352
SWIDTH 480 0
DWIDTH 5 0
BBX 6 8 0 0
BITMAP
000141
000000
000112
003500
000A10
000260
400040
353210
ENDCHAR
STARTCHAR scaron
ENCODING 353
SWIDTH 188 0
DWIDTH 2 0
BBX 2 3 0 0
BITMAP
34
15
44
ENDCHAR
STARTCHAR Ydieresis
ENCODING 376
SWIDTH 662 0
DWIDTH 7 0
BBX 9 9 0 -1
BITMAP
0000013000
0000000000
0003700150
0000500710
0203105600
4005169000
6007E71000
8202520000
1DEA200000
ENDCHAR
STARTCHAR Zcaron
ENCODING 381
SWIDTH 625 0
DWIDTH 6 0
BBX 7 8 0 0
BITMAP
00002410
00001670
0008E600
00232100
00111000
00000010
01001400
3EFFC100
ENDCHAR
STARTCHAR zcaron
ENCODING 382
SWIDTH 248 0
DWIDTH 2 0
BBX 3 4 0 0
BITMAP
0110
2720
1200
7510
ENDCHAR
STARTCHAR florin
ENCODING 402
SWIDTH 214 0
DWIDTH 2 0
BBX 4 4 -1 -1
BITMAP
01B4
09D1
0400
2200
ENDCHAR
STARTCHAR circumflex
ENCODING 710
SWIDTH 196 0
DWIDTH 2 0
BBX 2 2 0 3
BITMAP
11
12
ENDCHAR
STARTCHAR caron
ENCODING 711
SWIDTH 196 0
DWIDTH 2 0
BBX 2 1 0 3
BITMAP
12
ENDCHAR
STARTCHAR breve
ENCODING 728
SWIDTH 198 0
DWIDTH 2 0
BBX 1 1 1 3
BITMAP
20
ENDCHAR
STARTCHAR dotaccent
ENCODING 729
SWIDTH 89 0
DWIDTH 1 0
BBX 1 1 0 3
BITMAP
40
ENDCHAR
STARTCHAR ring
ENCODING 730
SWIDTH 117 0
DWIDTH 1 0
BBX 1 1 0 3
BITMAP
50
ENDCHAR
STARTCHAR ogonek
ENCODING 731
SWIDTH 124 0
DWIDTH 1 0
BBX 1 2 0 -2
BITMAP
30
10
ENDCHAR
STARTCHAR tilde
ENCODING 732
SWIDTH 222 0
DWIDTH 2 0
BBX 2 3 0 2
BITMAP
60
66
09
ENDCHAR
STARTCHAR hungarumlaut
ENCODING 733
SWIDTH 253 0
DWIDTH 3 0
BBX 3 1 0 3
BITMAP
5720
ENDCHAR
STARTCHAR mu.dup2
ENCODING 956
SWIDTH 324 0
DWIDTH 3 0
BBX 4 5 -1 -2
BITMAP
0046
0458
0897
0500
1200
ENDCHAR
STARTCHAR endash
ENCODING 8211
SWIDTH 500 0
DWIDTH 5 0
BBX 5 1 0 1
BITMAP
BFFFB0
ENDCHAR
STARTCHAR emdash
ENCODING 8212
SWIDTH 1000 0
DWIDTH 10 0
BBX 10 1 0 1
BITMAP
BFFFFFFFFB
ENDCHAR
STARTCHAR quoteleft
ENCODING 8216
SWIDTH 87 0
DWIDTH 1 0
BBX 2 2 0 2
BITMAP
31
20
ENDCHAR
STARTCHAR quoteright
ENCODING 8217
SWIDTH 87 0
DWIDTH 1 0
BBX 2 2 0 2
BITMAP
14
10
ENDCHAR
STARTCHAR quotesinglbase
ENCODING 8218
SWIDTH 112 0
DWIDTH 1 0
BBX 1 1 0 0
BITMAP
10
ENDCHAR
STARTCHAR quotedblleft
ENCODING 8220
SWIDTH 167 0
DWIDTH 2 0
BBX 2 1 0 3
BITMAP
34
ENDCHAR
STARTCHAR quotedblright
ENCODING 8221
SWIDTH 167 0
DWIDTH 2 0
BBX 3 1 0 3
BITMAP
1510
ENDCHAR
STARTCHAR quotedblbase
ENCODING 8222
SWIDTH 192 0
DWIDTH 2 0
BBX 2 1 0 0
BITMAP
43
ENDCHAR
STARTCHAR dagger
ENCODING 8224
SWIDTH 185 0
DWIDTH 2 0
BBX 3 7 0 -1
BITMAP
0300
0400
9D40
1300
3000
3000
2000
ENDCHAR
STARTCHAR daggerdbl
ENCODING 8225
SWIDTH 185 0
DWIDTH 2 0
BBX 4 7 -1 -1
BITMAP
0030
0040
06E5
0210
3EA0
0200
0100
ENDCHAR
STARTCHAR bullet
ENCODING 8226
SWIDTH 207 0
DWIDTH 2 0
BBX 2 1 0 1
BITMAP
48
ENDCHAR
STARTCHAR ellipsis
ENCODING 8230
SWIDTH 376 0
DWIDTH 4 0
BBX 1 1 3 0
BITMAP
00
ENDCHAR
STARTCHAR perthousand
ENCODING 8240
SWIDTH 571 0
DWIDTH 6 0
BBX 6 5 0 -1
BITMAP
000300
253000
664544
136362
200000
ENDCHAR
STARTCHAR guilsinglleft
ENCODING 8249
SWIDTH 189 0
DWIDTH 2 0
BBX 2 3 0 0
BITMAP
03
50
33
ENDCHAR
STARTCHAR guilsinglright
ENCODING 8250
SWIDTH 176 0
DWIDTH 2 0
BBX 3 3 -1 0
BITMAP
0610
0140
1300
ENDCHAR
STARTCHAR fraction
ENCODING 8260
SWIDTH 220 0
DWIDTH 2 0
BBX 5 5 -1 -1
BITMAP
000110
001300
004000
030000
110000
ENDCHAR
STARTCHAR Euro
ENCODING 8364
SWIDTH 360 0
DWIDTH 4 0
BBX 3 4 0 0
BITMAP
0AA0
AF30
5100
5120
ENDCHAR
STARTCHAR trademark
ENCODING 8482
SWIDTH 389 0
DWIDTH 4 0
BBX 4 2 0 1
BITMAP
1453
1211
ENDCHAR
STARTCHAR minus
ENCODING 8722
SWIDTH 301 0
DWIDTH 3 0
BBX 3 1 0 1
BITMAP
6FA0
ENDCHAR
STARTCHAR fi
ENCODING 64257
SWIDTH 297 0
DWIDTH 3 0
BBX 9 10 -3 -2
BITMAP
0000003620
0000030000
0000132000
0000430000
0000500000
0008FA0000
0003320000
0005250000
0022000000
4210000000
ENDCHAR
STARTCHAR fl
ENCODING 64258
SWIDTH 290 0
DWIDTH 3 0
BBX 10 10 -3 -2
BITMAP
0000004763
0000031300
0000133000
0000513000
0000540000
0007F90000
0003230000
0005160000
0022000000
4210000000
ENDCHAR
STARTCHAR .notdef
ENCODING -1
SWIDTH 150 0
DWIDTH 2 0
BBX 1 1 0 0
BITMAP
00
ENDCHAR
STARTCHAR .null
ENCODING -1
SWIDTH 0 0
DWIDTH 0 0
BBX 1 1 0 0
BITMAP
00
ENDCHAR
STARTCHAR nonmarkingreturn
ENCODING -1
SWIDTH 150 0
DWIDTH 2 0
BBX 1 1 0 0
BITMAP
00
ENDCHAR
ENDFONT
